{
	"asset":{
		"version":"2.0",
		"generator":"Created using the official Cinema 4D glTF Exporter 1.000x284978"
	},
	"scenes":[{
		"nodes":[0]
	}],
	"nodes":[{
		"name":"Coca",
		"translation":[0.00006020069122314453,
		51.9219856262207,
		-0.00000476837158203125],
		"rotation":[0.0,
		0.0,
		0.0,
		-1.0],
		"scale":[1.0,
		1.0,
		1.0],
		"children":[1,
		2,
		3]
	},
	{
		"name":"Label",
		"translation":[8.4285306930542,
		4.175124168395996,
		-0.07355093955993653],
		"rotation":[0.0,
		0.0,
		0.0,
		-1.0],
		"scale":[1.0,
		1.0,
		1.0],
		"mesh":0
	},
	{
		"name":"Coca Outsi",
		"translation":[0.000033307424018858,
		-0.2107858657836914,
		-0.000003796549208345823],
		"rotation":[0.0,
		0.0,
		0.0,
		-1.0],
		"scale":[1.0,
		1.0,
		1.0],
		"mesh":1
	},
	{
		"name":"Bottle Cap",
		"translation":[-0.000008890601748134941,
		50.04335021972656,
		0.00027693150332197547],
		"rotation":[0.0,
		0.0,
		0.0,
		-1.0],
		"scale":[1.0,
		1.0,
		1.0],
		"children":[4,
		5]
	},
	{
		"name":"Bottle Cap-Red",
		"mesh":2
	},
	{
		"name":"Bottle Cap-Steel",
		"mesh":3
	}],
	"meshes":[{
		"name":"Label",
		"primitives":[{
			"attributes":{
				"POSITION":1,
				"NORMAL":2,
				"TEXCOORD_0":3
			},
			"indices":0,
			"material":0
		}]
	},
	{
		"name":"Coca Outsi",
		"primitives":[{
			"attributes":{
				"POSITION":5,
				"NORMAL":6,
				"TEXCOORD_0":7
			},
			"indices":4,
			"material":1
		}]
	},
	{
		"name":"Bottle Cap-Red",
		"primitives":[{
			"attributes":{
				"POSITION":9,
				"NORMAL":10,
				"TEXCOORD_0":11
			},
			"indices":8,
			"material":2
		}]
	},
	{
		"name":"Bottle Cap-Steel",
		"primitives":[{
			"attributes":{
				"POSITION":13,
				"NORMAL":14,
				"TEXCOORD_0":15
			},
			"indices":12,
			"material":3
		}]
	}],
	"accessors":[{
		"bufferView":0,
		"type":"SCALAR",
		"componentType":5123,
		"count":7560,
		"byteOffset":0,
		"min":[0],
		"max":[1333]
	},
	{
		"bufferView":1,
		"type":"VEC3",
		"componentType":5126,
		"count":1334,
		"byteOffset":0,
		"min":[-6.599967956542969,
		-12.217092514038086,
		-14.555639266967774],
		"max":[6.498697280883789,
		12.217097282409668,
		14.649377822875977]
	},
	{
		"bufferView":1,
		"type":"VEC3",
		"componentType":5126,
		"count":1334,
		"byteOffset":12,
		"min":[0.1797921359539032,
		-0.09059026837348938,
		-0.9800726771354675],
		"max":[0.9997093677520752,
		0.25515109300613406,
		0.9764606356620789]
	},
	{
		"bufferView":1,
		"type":"VEC2",
		"componentType":5126,
		"count":1334,
		"byteOffset":24,
		"min":[0.0,
		0.0],
		"max":[1.0,
		1.0]
	},
	{
		"bufferView":2,
		"type":"SCALAR",
		"componentType":5123,
		"count":94656,
		"byteOffset":0,
		"min":[0],
		"max":[16250]
	},
	{
		"bufferView":3,
		"type":"VEC3",
		"componentType":5126,
		"count":16251,
		"byteOffset":0,
		"min":[-15.219819068908692,
		-51.71120071411133,
		-15.219789505004883],
		"max":[15.219752311706543,
		51.71125030517578,
		15.219797134399414]
	},
	{
		"bufferView":3,
		"type":"VEC3",
		"componentType":5126,
		"count":16251,
		"byteOffset":12,
		"min":[-0.9999619126319885,
		-1.0,
		-0.9999618530273438],
		"max":[0.999961793422699,
		1.0,
		0.999961793422699]
	},
	{
		"bufferView":3,
		"type":"VEC2",
		"componentType":5126,
		"count":16251,
		"byteOffset":24,
		"min":[0.0,
		0.0],
		"max":[1.0,
		1.0]
	},
	{
		"bufferView":4,
		"type":"SCALAR",
		"componentType":5123,
		"count":37722,
		"byteOffset":0,
		"min":[0],
		"max":[10661]
	},
	{
		"bufferView":5,
		"type":"VEC3",
		"componentType":5126,
		"count":10662,
		"byteOffset":0,
		"min":[-7.185284614562988,
		-0.7159614562988281,
		-7.184515476226807],
		"max":[7.1847825050354,
		1.8786334991455079,
		7.184150218963623]
	},
	{
		"bufferView":5,
		"type":"VEC3",
		"componentType":5126,
		"count":10662,
		"byteOffset":12,
		"min":[-0.9988750219345093,
		-1.0,
		-0.9989063143730164],
		"max":[0.9987500309944153,
		1.0,
		0.9988125562667847]
	},
	{
		"bufferView":5,
		"type":"VEC2",
		"componentType":5126,
		"count":10662,
		"byteOffset":24,
		"min":[0.0,
		0.0],
		"max":[1.0,
		1.0]
	},
	{
		"bufferView":6,
		"type":"SCALAR",
		"componentType":5123,
		"count":115770,
		"byteOffset":0,
		"min":[0],
		"max":[26753]
	},
	{
		"bufferView":7,
		"type":"VEC3",
		"componentType":5126,
		"count":26754,
		"byteOffset":0,
		"min":[-7.444836139678955,
		-1.8787384033203126,
		-7.4440388679504398],
		"max":[7.44443416595459,
		1.8398571014404297,
		7.4437737464904789]
	},
	{
		"bufferView":7,
		"type":"VEC3",
		"componentType":5126,
		"count":26754,
		"byteOffset":12,
		"min":[-0.9999688267707825,
		-1.0,
		-0.9999063014984131],
		"max":[0.9999688267707825,
		0.5502187609672546,
		0.9999688267707825]
	},
	{
		"bufferView":7,
		"type":"VEC2",
		"componentType":5126,
		"count":26754,
		"byteOffset":24,
		"min":[0.527442216873169,
		0.0],
		"max":[0.9386591911315918,
		1.0]
	}],
	"bufferViews":[{
		"buffer":0,
		"byteOffset":0,
		"byteLength":15120,
		"target":34963
	},
	{
		"buffer":0,
		"byteOffset":15120,
		"byteLength":42688,
		"target":34962,
		"byteStride":32
	},
	{
		"buffer":1,
		"byteOffset":0,
		"byteLength":189312,
		"target":34963
	},
	{
		"buffer":1,
		"byteOffset":189312,
		"byteLength":520032,
		"target":34962,
		"byteStride":32
	},
	{
		"buffer":2,
		"byteOffset":0,
		"byteLength":75444,
		"target":34963
	},
	{
		"buffer":2,
		"byteOffset":75444,
		"byteLength":341184,
		"target":34962,
		"byteStride":32
	},
	{
		"buffer":3,
		"byteOffset":0,
		"byteLength":231540,
		"target":34963
	},
	{
		"buffer":3,
		"byteOffset":231540,
		"byteLength":856128,
		"target":34962,
		"byteStride":32
	}],
	"buffers":[{
		"uri":"data:application/octet-stream;base64,",
		"byteLength":57808
	},
	{
		"uri":"data:application/octet-stream;base64,",
		"byteLength":709344
	},
	{
		"uri":"data:application/octet-stream;base64,",
		"byteLength":416628
	},
	{
		"uri":"data:application/octet-stream;base64,",
		"byteLength":1087668
	}],
	"images":[{
		"uri":"data:image/png;base64,"
	}],
	"samplers":[{
		"magFilter":9729,
		"minFilter":9729,
		"wrapS":10497,
		"wrapT":10497
	}],
	"textures":[{
		"sampler":0,
		"source":0
	}],
	"materials":[{
		"pbrMetallicRoughness":{
			"baseColorTexture":{
				"index":0
			},
			"baseColorFactor":[0.97,
			0.97,
			0.97,
			1.0],
			"metallicFactor":0.0,
			"roughnessFactor":0.2869599186459915
		},
		"emissiveFactor":[0.0,
		0.0,
		0.0],
		"name":"Poster",
		"alphaMode":"BLEND",
		"doubleSided":true
	},
	{
		"pbrMetallicRoughness":{
			"baseColorFactor":[0.4980392156862745,
			0.4980392156862745,
			0.4980392156862745,
			0.0],
			"metallicFactor":0.0,
			"roughnessFactor":0.2980615760929028
		},
		"emissiveFactor":[0.0,
		0.0,
		0.0],
		"name":"Glass",
		"alphaMode":"BLEND",
		"doubleSided":true
	},
	{
		"pbrMetallicRoughness":{
			"baseColorFactor":[0.39215686274509806,
			0.0,
			0.0,
			1.0],
			"metallicFactor":0.47000000000000005,
			"roughnessFactor":0.19
		},
		"emissiveFactor":[0.0,
		0.0,
		0.0],
		"name":"Red",
		"alphaMode":"OPAQUE",
		"doubleSided":true
	},
	{
		"pbrMetallicRoughness":{
			"baseColorFactor":[0.39216,
			0.0,
			0.0,
			1.0],
			"metallicFactor":0.0,
			"roughnessFactor":0.3052054514696672
		},
		"emissiveFactor":[0.0,
		0.0,
		0.0],
		"name":"Steel",
		"alphaMode":"OPAQUE",
		"doubleSided":true
	}]
}